<svg width="411" height="206" viewBox="0 0 411 206" fill="none" xmlns="http://www.w3.org/2000/svg">
<g filter="url(#filter0_dd_128:80)">
<rect x="16" y="16" width="378.833" height="173.667" rx="8.95833" fill="white"/>
</g>
<path d="M45.164 91.3L37.344 76.714V93H31.972V69.2H39.35L45.232 80.42L51.114 69.2H58.492V93H52.984V76.782L45.164 91.3ZM67.1544 93.306C65.2504 93.306 63.6864 92.7847 62.4624 91.742C61.2384 90.6993 60.6264 89.362 60.6264 87.73C60.6264 86.03 61.2724 84.704 62.5644 83.752C63.8791 82.8 65.7038 82.324 68.0384 82.324C68.7411 82.324 69.4324 82.3693 70.1124 82.46C70.7924 82.5507 71.4611 82.6753 72.1184 82.834V81.95C72.1184 81.0433 71.8238 80.3747 71.2344 79.944C70.6678 79.4907 69.8178 79.264 68.6844 79.264C67.9818 79.264 67.1884 79.3773 66.3044 79.604C65.4204 79.8307 64.4004 80.1933 63.2444 80.692L61.2724 76.646C62.7231 75.9887 64.1398 75.5013 65.5224 75.184C66.9278 74.844 68.3104 74.674 69.6704 74.674C72.1638 74.674 74.1018 75.2747 75.4844 76.476C76.8671 77.6547 77.5584 79.3207 77.5584 81.474V93H72.1184V91.912C71.3931 92.4107 70.6224 92.7733 69.8064 93C69.0131 93.204 68.1291 93.306 67.1544 93.306ZM65.8624 87.628C65.8624 88.1947 66.1118 88.6367 66.6104 88.954C67.1091 89.2713 67.8004 89.43 68.6844 89.43C69.3418 89.43 69.9538 89.362 70.5204 89.226C71.1098 89.09 71.6424 88.8747 72.1184 88.58V86.268C71.5971 86.132 71.0644 86.03 70.5204 85.962C69.9764 85.894 69.4211 85.86 68.8544 85.86C67.9024 85.86 67.1658 86.0187 66.6444 86.336C66.1231 86.6307 65.8624 87.0613 65.8624 87.628ZM82.2782 87.526V79.604H78.6402V75.014H82.2782V70.39L87.7862 69.2V75.014H92.8182V79.604H87.7862V86.438C87.7862 87.2313 87.9562 87.798 88.2962 88.138C88.6589 88.4553 89.2822 88.614 90.1662 88.614C90.5969 88.614 91.0049 88.5913 91.3902 88.546C91.7755 88.478 92.1949 88.376 92.6482 88.24V92.694C92.1495 92.8527 91.5149 92.9773 90.7442 93.068C89.9735 93.1813 89.3275 93.238 88.8062 93.238C86.6529 93.238 85.0209 92.762 83.9102 91.81C82.8222 90.8353 82.2782 89.4073 82.2782 87.526ZM111.018 90.62C109.885 91.572 108.718 92.2633 107.516 92.694C106.338 93.1247 105 93.34 103.504 93.34C102.144 93.34 100.864 93.102 99.6624 92.626C98.4611 92.15 97.4184 91.4927 96.5344 90.654C95.6731 89.8153 94.9818 88.8293 94.4604 87.696C93.9618 86.54 93.7124 85.316 93.7124 84.024C93.7124 82.732 93.9504 81.5193 94.4264 80.386C94.9251 79.23 95.5938 78.2327 96.4324 77.394C97.2711 76.5553 98.2571 75.898 99.3904 75.422C100.546 74.946 101.782 74.708 103.096 74.708C104.411 74.708 105.624 74.9573 106.734 75.456C107.845 75.9547 108.797 76.6347 109.59 77.496C110.406 78.3573 111.041 79.4 111.494 80.624C111.948 81.8253 112.174 83.1287 112.174 84.534V85.894H99.3564C99.7191 86.7327 100.286 87.424 101.056 87.968C101.827 88.4893 102.734 88.75 103.776 88.75C104.524 88.75 105.204 88.6367 105.816 88.41C106.428 88.1607 106.95 87.8207 107.38 87.39L111.018 90.62ZM102.994 79.196C102.088 79.196 101.306 79.4453 100.648 79.944C99.9911 80.4427 99.5264 81.1453 99.2544 82.052H106.768C106.474 81.1907 105.986 80.4993 105.306 79.978C104.649 79.4567 103.878 79.196 102.994 79.196ZM114.309 93V75.014H119.817V76.17C120.452 75.6713 121.143 75.2973 121.891 75.048C122.662 74.7987 123.466 74.674 124.305 74.674C125.416 74.674 126.424 74.9007 127.331 75.354C128.26 75.7847 129.031 76.3853 129.643 77.156C130.368 76.3627 131.23 75.7507 132.227 75.32C133.224 74.8893 134.312 74.674 135.491 74.674C137.531 74.674 139.197 75.354 140.489 76.714C141.804 78.074 142.461 79.808 142.461 81.916V93H136.953V82.664C136.953 81.6893 136.681 80.9073 136.137 80.318C135.616 79.706 134.913 79.4 134.029 79.4C133.417 79.4 132.862 79.5247 132.363 79.774C131.864 80.0007 131.434 80.3293 131.071 80.76C131.094 80.9413 131.105 81.134 131.105 81.338C131.128 81.5193 131.139 81.712 131.139 81.916V93H125.631V82.664C125.631 81.6893 125.359 80.9073 124.815 80.318C124.294 79.706 123.591 79.4 122.707 79.4C122.095 79.4 121.54 79.5133 121.041 79.74C120.565 79.944 120.157 80.2613 119.817 80.692V93H114.309ZM151.025 93.306C149.121 93.306 147.557 92.7847 146.333 91.742C145.109 90.6993 144.497 89.362 144.497 87.73C144.497 86.03 145.143 84.704 146.435 83.752C147.75 82.8 149.575 82.324 151.909 82.324C152.612 82.324 153.303 82.3693 153.983 82.46C154.663 82.5507 155.332 82.6753 155.989 82.834V81.95C155.989 81.0433 155.695 80.3747 155.105 79.944C154.539 79.4907 153.689 79.264 152.555 79.264C151.853 79.264 151.059 79.3773 150.175 79.604C149.291 79.8307 148.271 80.1933 147.115 80.692L145.143 76.646C146.594 75.9887 148.011 75.5013 149.393 75.184C150.799 74.844 152.181 74.674 153.541 74.674C156.035 74.674 157.973 75.2747 159.355 76.476C160.738 77.6547 161.429 79.3207 161.429 81.474V93H155.989V91.912C155.264 92.4107 154.493 92.7733 153.677 93C152.884 93.204 152 93.306 151.025 93.306ZM149.733 87.628C149.733 88.1947 149.983 88.6367 150.481 88.954C150.98 89.2713 151.671 89.43 152.555 89.43C153.213 89.43 153.825 89.362 154.391 89.226C154.981 89.09 155.513 88.8747 155.989 88.58V86.268C155.468 86.132 154.935 86.03 154.391 85.962C153.847 85.894 153.292 85.86 152.725 85.86C151.773 85.86 151.037 86.0187 150.515 86.336C149.994 86.6307 149.733 87.0613 149.733 87.628ZM153.439 67.602H159.593L154.833 72.226H150.447L153.439 67.602ZM166.149 87.526V79.604H162.511V75.014H166.149V70.39L171.657 69.2V75.014H176.689V79.604H171.657V86.438C171.657 87.2313 171.827 87.798 172.167 88.138C172.53 88.4553 173.153 88.614 174.037 88.614C174.468 88.614 174.876 88.5913 175.261 88.546C175.646 88.478 176.066 88.376 176.519 88.24V92.694C176.02 92.8527 175.386 92.9773 174.615 93.068C173.844 93.1813 173.198 93.238 172.677 93.238C170.524 93.238 168.892 92.762 167.781 91.81C166.693 90.8353 166.149 89.4073 166.149 87.526ZM181.153 73.348C180.315 73.348 179.601 73.0533 179.011 72.464C178.422 71.8747 178.127 71.1607 178.127 70.322C178.127 69.4833 178.422 68.7693 179.011 68.18C179.601 67.5907 180.315 67.296 181.153 67.296C181.992 67.296 182.706 67.5907 183.295 68.18C183.885 68.7693 184.179 69.4833 184.179 70.322C184.179 71.1607 183.885 71.8747 183.295 72.464C182.706 73.0533 181.992 73.348 181.153 73.348ZM183.907 75.014V93H178.399V75.014H183.907ZM195.834 88.58C196.582 88.58 197.273 88.4213 197.908 88.104C198.542 87.7867 199.154 87.2993 199.744 86.642L203.008 90.042C202.101 91.0847 200.99 91.9007 199.676 92.49C198.361 93.0567 196.99 93.34 195.562 93.34C194.224 93.34 192.966 93.102 191.788 92.626C190.632 92.15 189.623 91.4927 188.762 90.654C187.923 89.8153 187.254 88.8293 186.756 87.696C186.28 86.5627 186.042 85.3387 186.042 84.024C186.042 82.7093 186.28 81.4853 186.756 80.352C187.254 79.196 187.923 78.21 188.762 77.394C189.623 76.5553 190.632 75.898 191.788 75.422C192.966 74.9233 194.224 74.674 195.562 74.674C197.035 74.674 198.44 74.9687 199.778 75.558C201.115 76.1473 202.248 76.9633 203.178 78.006L199.812 81.508C199.177 80.8053 198.531 80.284 197.874 79.944C197.216 79.604 196.491 79.434 195.698 79.434C194.519 79.434 193.522 79.876 192.706 80.76C191.912 81.644 191.516 82.732 191.516 84.024C191.516 85.316 191.924 86.404 192.74 87.288C193.578 88.1493 194.61 88.58 195.834 88.58ZM210.492 93.306C208.588 93.306 207.024 92.7847 205.8 91.742C204.576 90.6993 203.964 89.362 203.964 87.73C203.964 86.03 204.61 84.704 205.902 83.752C207.217 82.8 209.041 82.324 211.376 82.324C212.079 82.324 212.77 82.3693 213.45 82.46C214.13 82.5507 214.799 82.6753 215.456 82.834V81.95C215.456 81.0433 215.161 80.3747 214.572 79.944C214.005 79.4907 213.155 79.264 212.022 79.264C211.319 79.264 210.526 79.3773 209.642 79.604C208.758 79.8307 207.738 80.1933 206.582 80.692L204.61 76.646C206.061 75.9887 207.477 75.5013 208.86 75.184C210.265 74.844 211.648 74.674 213.008 74.674C215.501 74.674 217.439 75.2747 218.822 76.476C220.205 77.6547 220.896 79.3207 220.896 81.474V93H215.456V91.912C214.731 92.4107 213.96 92.7733 213.144 93C212.351 93.204 211.467 93.306 210.492 93.306ZM209.2 87.628C209.2 88.1947 209.449 88.6367 209.948 88.954C210.447 89.2713 211.138 89.43 212.022 89.43C212.679 89.43 213.291 89.362 213.858 89.226C214.447 89.09 214.98 88.8747 215.456 88.58V86.268C214.935 86.132 214.402 86.03 213.858 85.962C213.314 85.894 212.759 85.86 212.192 85.86C211.24 85.86 210.503 86.0187 209.982 86.336C209.461 86.6307 209.2 87.0613 209.2 87.628ZM222.336 90.994L224.954 87.288C226.087 87.968 227.118 88.4667 228.048 88.784C228.977 89.0787 229.895 89.226 230.802 89.226C231.708 89.226 232.422 89.1013 232.944 88.852C233.488 88.58 233.76 88.2287 233.76 87.798C233.76 87.458 233.612 87.186 233.318 86.982C233.023 86.7553 232.558 86.5967 231.924 86.506L228.354 85.962C226.586 85.69 225.226 85.1007 224.274 84.194C223.322 83.2647 222.846 82.0633 222.846 80.59C222.846 78.7767 223.537 77.3487 224.92 76.306C226.302 75.2633 228.195 74.742 230.598 74.742C231.89 74.742 233.182 74.9347 234.474 75.32C235.788 75.6827 237.001 76.2153 238.112 76.918L235.494 80.454C234.519 79.8873 233.59 79.4793 232.706 79.23C231.822 78.958 230.938 78.822 230.054 78.822C229.351 78.822 228.784 78.9467 228.354 79.196C227.923 79.4227 227.708 79.7287 227.708 80.114C227.708 80.4767 227.866 80.7713 228.184 80.998C228.501 81.202 229.045 81.3607 229.816 81.474L233.386 82.018C235.154 82.2673 236.514 82.8567 237.466 83.786C238.44 84.6927 238.928 85.8487 238.928 87.254C238.928 88.1153 238.724 88.92 238.316 89.668C237.908 90.416 237.341 91.062 236.616 91.606C235.913 92.15 235.063 92.5807 234.066 92.898C233.068 93.1927 231.992 93.34 230.836 93.34C229.136 93.34 227.549 93.1473 226.076 92.762C224.625 92.354 223.378 91.7647 222.336 90.994Z" fill="#19191D"/>
<rect x="30" y="121" width="351" height="37" rx="18.5" fill="#A5A6F6"/>
<path d="M31.5 138.5C31.5 128.283 39.7827 120 50 120H262C272.217 120 280.5 128.283 280.5 138.5C280.5 148.717 272.217 157 262 157H50C39.7827 157 31.5 148.717 31.5 138.5Z" fill="#2979FF"/>
<rect x="23.1666" y="23.1667" width="364.5" height="7.16667" rx="3.58333" fill="#9DC2FF"/>
<defs>
<filter id="filter0_dd_128:80" x="0" y="0" width="410.833" height="205.667" filterUnits="userSpaceOnUse" color-interpolation-filters="sRGB">
<feFlood flood-opacity="0" result="BackgroundImageFix"/>
<feColorMatrix in="SourceAlpha" type="matrix" values="0 0 0 0 0 0 0 0 0 0 0 0 0 0 0 0 0 0 127 0" result="hardAlpha"/>
<feOffset/>
<feGaussianBlur stdDeviation="8"/>
<feColorMatrix type="matrix" values="0 0 0 0 0 0 0 0 0 0 0 0 0 0 0 0 0 0 0.12 0"/>
<feBlend mode="normal" in2="BackgroundImageFix" result="effect1_dropShadow_128:80"/>
<feColorMatrix in="SourceAlpha" type="matrix" values="0 0 0 0 0 0 0 0 0 0 0 0 0 0 0 0 0 0 127 0" result="hardAlpha"/>
<feOffset/>
<feGaussianBlur stdDeviation="2"/>
<feColorMatrix type="matrix" values="0 0 0 0 0 0 0 0 0 0 0 0 0 0 0 0 0 0 0.24 0"/>
<feBlend mode="normal" in2="effect1_dropShadow_128:80" result="effect2_dropShadow_128:80"/>
<feBlend mode="normal" in="SourceGraphic" in2="effect2_dropShadow_128:80" result="shape"/>
</filter>
</defs>
</svg>
