<svg width="411" height="206" viewBox="0 0 411 206" fill="none" xmlns="http://www.w3.org/2000/svg">
<g filter="url(#filter0_dd_128:150)">
<rect x="16" y="16" width="378.833" height="173.667" rx="8.95833" fill="white"/>
</g>
<path d="M56.554 81.1C56.554 82.7547 56.2367 84.3187 55.602 85.792C54.99 87.2427 54.14 88.5233 53.052 89.634L55.364 92.558L50.4 94.394L48.836 92.422C48.0653 92.7167 47.2607 92.9433 46.422 93.102C45.606 93.2833 44.7447 93.374 43.838 93.374C42.07 93.374 40.404 93.0567 38.84 92.422C37.276 91.7873 35.9273 90.926 34.794 89.838C33.6607 88.7273 32.7653 87.424 32.108 85.928C31.4507 84.4093 31.122 82.8 31.122 81.1C31.122 79.4 31.4507 77.802 32.108 76.306C32.7653 74.7873 33.6607 73.484 34.794 72.396C35.9273 71.2853 37.276 70.4127 38.84 69.778C40.404 69.1433 42.07 68.826 43.838 68.826C45.606 68.826 47.272 69.1433 48.836 69.778C50.4 70.4127 51.7487 71.2853 52.882 72.396C54.0153 73.484 54.9107 74.7873 55.568 76.306C56.2253 77.802 56.554 79.4 56.554 81.1ZM47.986 83.174L49.414 85.01C49.7767 84.466 50.0487 83.8653 50.23 83.208C50.434 82.528 50.536 81.8253 50.536 81.1C50.536 80.1253 50.366 79.2187 50.026 78.38C49.686 77.5187 49.21 76.782 48.598 76.17C48.0087 75.558 47.306 75.082 46.49 74.742C45.674 74.3793 44.79 74.198 43.838 74.198C42.886 74.198 42.002 74.3793 41.186 74.742C40.37 75.082 39.656 75.558 39.044 76.17C38.4547 76.782 37.99 77.5187 37.65 78.38C37.31 79.2187 37.14 80.1253 37.14 81.1C37.14 82.0747 37.31 82.9927 37.65 83.854C37.99 84.6927 38.4547 85.418 39.044 86.03C39.656 86.642 40.37 87.1293 41.186 87.492C42.002 87.832 42.886 88.002 43.838 88.002C44.0647 88.002 44.3027 87.9907 44.552 87.968C44.8013 87.9453 45.0393 87.9113 45.266 87.866L43.022 85.01L47.986 83.174ZM64.3234 75.014V85.35C64.3234 86.3247 64.6181 87.118 65.2074 87.73C65.8194 88.3193 66.6127 88.614 67.5874 88.614C68.2901 88.614 68.9134 88.4893 69.4574 88.24C70.0014 87.9907 70.4547 87.6393 70.8174 87.186V75.014H76.3254V93H70.8174V91.776C70.1601 92.2747 69.4121 92.66 68.5734 92.932C67.7574 93.204 66.8961 93.34 65.9894 93.34C63.8814 93.34 62.1587 92.66 60.8214 91.3C59.4841 89.94 58.8154 88.206 58.8154 86.098V75.014H64.3234ZM84.8046 75.014V93H79.2966V75.014H84.8046ZM82.4586 67.602H88.6126L83.8526 72.226H79.4666L82.4586 67.602ZM87.755 93V75.014H93.263V76.17C93.8977 75.6713 94.589 75.2973 95.337 75.048C96.1077 74.7987 96.9123 74.674 97.751 74.674C98.8617 74.674 99.8703 74.9007 100.777 75.354C101.706 75.7847 102.477 76.3853 103.089 77.156C103.814 76.3627 104.676 75.7507 105.673 75.32C106.67 74.8893 107.758 74.674 108.937 74.674C110.977 74.674 112.643 75.354 113.935 76.714C115.25 78.074 115.907 79.808 115.907 81.916V93H110.399V82.664C110.399 81.6893 110.127 80.9073 109.583 80.318C109.062 79.706 108.359 79.4 107.475 79.4C106.863 79.4 106.308 79.5247 105.809 79.774C105.31 80.0007 104.88 80.3293 104.517 80.76C104.54 80.9413 104.551 81.134 104.551 81.338C104.574 81.5193 104.585 81.712 104.585 81.916V93H99.077V82.664C99.077 81.6893 98.805 80.9073 98.261 80.318C97.7397 79.706 97.037 79.4 96.153 79.4C95.541 79.4 94.9857 79.5133 94.487 79.74C94.011 79.944 93.603 80.2613 93.263 80.692V93H87.755ZM121.479 73.348C120.64 73.348 119.926 73.0533 119.337 72.464C118.748 71.8747 118.453 71.1607 118.453 70.322C118.453 69.4833 118.748 68.7693 119.337 68.18C119.926 67.5907 120.64 67.296 121.479 67.296C122.318 67.296 123.032 67.5907 123.621 68.18C124.21 68.7693 124.505 69.4833 124.505 70.322C124.505 71.1607 124.21 71.8747 123.621 72.464C123.032 73.0533 122.318 73.348 121.479 73.348ZM124.233 75.014V93H118.725V75.014H124.233ZM136.16 88.58C136.908 88.58 137.599 88.4213 138.234 88.104C138.868 87.7867 139.48 87.2993 140.07 86.642L143.334 90.042C142.427 91.0847 141.316 91.9007 140.002 92.49C138.687 93.0567 137.316 93.34 135.888 93.34C134.55 93.34 133.292 93.102 132.114 92.626C130.958 92.15 129.949 91.4927 129.088 90.654C128.249 89.8153 127.58 88.8293 127.082 87.696C126.606 86.5627 126.368 85.3387 126.368 84.024C126.368 82.7093 126.606 81.4853 127.082 80.352C127.58 79.196 128.249 78.21 129.088 77.394C129.949 76.5553 130.958 75.898 132.114 75.422C133.292 74.9233 134.55 74.674 135.888 74.674C137.361 74.674 138.766 74.9687 140.104 75.558C141.441 76.1473 142.574 76.9633 143.504 78.006L140.138 81.508C139.503 80.8053 138.857 80.284 138.2 79.944C137.542 79.604 136.817 79.434 136.024 79.434C134.845 79.434 133.848 79.876 133.032 80.76C132.238 81.644 131.842 82.732 131.842 84.024C131.842 85.316 132.25 86.404 133.066 87.288C133.904 88.1493 134.936 88.58 136.16 88.58ZM150.818 93.306C148.914 93.306 147.35 92.7847 146.126 91.742C144.902 90.6993 144.29 89.362 144.29 87.73C144.29 86.03 144.936 84.704 146.228 83.752C147.542 82.8 149.367 82.324 151.702 82.324C152.404 82.324 153.096 82.3693 153.776 82.46C154.456 82.5507 155.124 82.6753 155.782 82.834V81.95C155.782 81.0433 155.487 80.3747 154.898 79.944C154.331 79.4907 153.481 79.264 152.348 79.264C151.645 79.264 150.852 79.3773 149.968 79.604C149.084 79.8307 148.064 80.1933 146.908 80.692L144.936 76.646C146.386 75.9887 147.803 75.5013 149.186 75.184C150.591 74.844 151.974 74.674 153.334 74.674C155.827 74.674 157.765 75.2747 159.148 76.476C160.53 77.6547 161.222 79.3207 161.222 81.474V93H155.782V91.912C155.056 92.4107 154.286 92.7733 153.47 93C152.676 93.204 151.792 93.306 150.818 93.306ZM149.526 87.628C149.526 88.1947 149.775 88.6367 150.274 88.954C150.772 89.2713 151.464 89.43 152.348 89.43C153.005 89.43 153.617 89.362 154.184 89.226C154.773 89.09 155.306 88.8747 155.782 88.58V86.268C155.26 86.132 154.728 86.03 154.184 85.962C153.64 85.894 153.084 85.86 152.518 85.86C151.566 85.86 150.829 86.0187 150.308 86.336C149.786 86.6307 149.526 87.0613 149.526 87.628Z" fill="#19191D"/>
<rect x="30" y="121" width="351" height="37" rx="18.5" fill="#A5A6F6"/>
<path d="M31.5 138.5C31.5 128.283 39.7827 120 50 120H262C272.217 120 280.5 128.283 280.5 138.5C280.5 148.717 272.217 157 262 157H50C39.7827 157 31.5 148.717 31.5 138.5Z" fill="#2979FF"/>
<rect x="23.1666" y="23.1667" width="364.5" height="7.16667" rx="3.58333" fill="#9DC2FF"/>
<defs>
<filter id="filter0_dd_128:150" x="0" y="0" width="410.833" height="205.667" filterUnits="userSpaceOnUse" color-interpolation-filters="sRGB">
<feFlood flood-opacity="0" result="BackgroundImageFix"/>
<feColorMatrix in="SourceAlpha" type="matrix" values="0 0 0 0 0 0 0 0 0 0 0 0 0 0 0 0 0 0 127 0" result="hardAlpha"/>
<feOffset/>
<feGaussianBlur stdDeviation="8"/>
<feColorMatrix type="matrix" values="0 0 0 0 0 0 0 0 0 0 0 0 0 0 0 0 0 0 0.12 0"/>
<feBlend mode="normal" in2="BackgroundImageFix" result="effect1_dropShadow_128:150"/>
<feColorMatrix in="SourceAlpha" type="matrix" values="0 0 0 0 0 0 0 0 0 0 0 0 0 0 0 0 0 0 127 0" result="hardAlpha"/>
<feOffset/>
<feGaussianBlur stdDeviation="2"/>
<feColorMatrix type="matrix" values="0 0 0 0 0 0 0 0 0 0 0 0 0 0 0 0 0 0 0.24 0"/>
<feBlend mode="normal" in2="effect1_dropShadow_128:150" result="effect2_dropShadow_128:150"/>
<feBlend mode="normal" in="SourceGraphic" in2="effect2_dropShadow_128:150" result="shape"/>
</filter>
</defs>
</svg>
