<?xml version="1.0" standalone="no"?>
<!DOCTYPE svg PUBLIC "-//W3C//DTD SVG 20010904//EN"
 "http://www.w3.org/TR/2001/REC-SVG-20010904/DTD/svg10.dtd">
<svg version="1.0" xmlns="http://www.w3.org/2000/svg"
 width="45.000000pt" height="45.000000pt" viewBox="0 0 45.000000 45.000000"
 preserveAspectRatio="xMidYMid meet">

<g transform="translate(0.000000,45.000000) scale(0.100000,-0.100000)"
fill="#000000" stroke="none">
<path d="M162 420 c-113 -27 -192 -170 -148 -271 15 -36 16 -36 58 -28 24 4
68 8 98 7 l55 -1 -60 -7 c-34 -5 -75 -12 -92 -17 -31 -8 -32 -9 -15 -30 16
-21 26 -22 154 -24 97 -1 142 2 152 10 28 24 66 114 66 158 0 46 -5 50 -34 28
-11 -8 -39 -15 -61 -15 -52 0 -89 31 -104 86 -9 32 -8 43 8 70 17 28 17 33 4
38 -18 7 -38 6 -81 -4z m41 -67 c-7 -2 -21 -2 -30 0 -10 3 -4 5 12 5 17 0 24
-2 18 -5z m-93 -19 c-56 -17 -64 -17 -25 1 17 8 39 14 50 14 11 0 0 -7 -25
-15z"/>
<path d="M313 423 c-31 -6 -63 -49 -63 -85 0 -19 10 -40 29 -59 46 -46 106
-37 136 21 33 64 -27 137 -102 123z m60 -75 c2 -18 2 -39 0 -45 -6 -15 -33
-17 -33 -3 0 6 -11 10 -25 10 -30 0 -31 4 -4 41 28 40 55 38 62 -3z"/>
</g>
</svg>
