<?xml version="1.0" standalone="no"?>
<!DOCTYPE svg PUBLIC "-//W3C//DTD SVG 20010904//EN"
 "http://www.w3.org/TR/2001/REC-SVG-20010904/DTD/svg10.dtd">
<svg version="1.0" xmlns="http://www.w3.org/2000/svg"
 width="102.000000pt" height="79.000000pt" viewBox="0 0 102.000000 79.000000"
 preserveAspectRatio="xMidYMid meet">

<g transform="translate(0.000000,79.000000) scale(0.100000,-0.100000)"
fill="#000000" stroke="none">
<path d="M236 445 c-58 -53 -19 -145 63 -145 31 0 44 6 60 26 12 15 21 35 21
45 0 16 -8 19 -46 19 -32 0 -44 -4 -42 -12 3 -7 15 -14 27 -16 18 -3 20 -6 10
-18 -14 -17 -51 -18 -67 -2 -7 7 -12 27 -12 45 0 42 38 65 72 44 30 -18 51 4
24 25 -31 22 -79 17 -110 -11z"/>
<path d="M426 444 c-56 -57 -18 -144 63 -144 52 0 96 47 87 94 -14 72 -99 100
-150 50z m96 -21 c34 -31 10 -93 -37 -93 -30 0 -45 19 -45 57 0 49 46 69 82
36z"/>
<path d="M770 438 l34 -38 -72 0 c-41 0 -72 -4 -72 -10 0 -6 31 -10 72 -10
l72 0 -34 -37 c-30 -33 -29 -32 10 5 l45 42 -45 43 c-39 36 -40 37 -10 5z"/>
</g>
</svg>
