<svg width="411" height="206" viewBox="0 0 411 206" fill="none" xmlns="http://www.w3.org/2000/svg">
<g filter="url(#filter0_dd_128:43)">
<rect x="16" y="16" width="378.833" height="173.667" rx="8.95833" fill="white"/>
</g>
<path d="M31.972 81V57.2H37.82V81H31.972ZM41.0549 81V63.014H46.5629V64.238C47.2203 63.7393 47.9569 63.354 48.7729 63.082C49.6116 62.81 50.4843 62.674 51.3909 62.674C53.4989 62.674 55.2216 63.354 56.5589 64.714C57.8963 66.074 58.5649 67.808 58.5649 69.916V81H53.0569V70.664C53.0569 69.6893 52.7509 68.9073 52.1389 68.318C51.5496 67.706 50.7676 67.4 49.7929 67.4C49.0903 67.4 48.4669 67.5247 47.9229 67.774C47.3789 68.0233 46.9256 68.3747 46.5629 68.828V81H41.0549ZM59.648 63.014H63.592V61.926C63.592 59.818 64.2153 58.1973 65.462 57.064C66.7314 55.9307 68.5447 55.364 70.902 55.364C71.378 55.364 71.888 55.398 72.432 55.466C72.9987 55.534 73.4634 55.6133 73.826 55.704V60.26C73.3954 60.1693 73.01 60.1127 72.67 60.09C72.3527 60.0447 72.0127 60.022 71.65 60.022C70.8114 60.022 70.1767 60.192 69.746 60.532C69.3154 60.8493 69.1 61.348 69.1 62.028V63.014H73.826V67.604H69.1V81H63.592V67.604H59.648V63.014ZM74.5542 72.024C74.5542 70.732 74.8036 69.5193 75.3022 68.386C75.8236 67.23 76.5149 66.2327 77.3762 65.394C78.2602 64.5553 79.2916 63.898 80.4702 63.422C81.6716 62.9233 82.9522 62.674 84.3122 62.674C85.6722 62.674 86.9416 62.9233 88.1202 63.422C89.3216 63.898 90.3529 64.5553 91.2142 65.394C92.0982 66.2327 92.7896 67.23 93.2882 68.386C93.8096 69.5193 94.0702 70.732 94.0702 72.024C94.0702 73.316 93.8096 74.54 93.2882 75.696C92.7896 76.8293 92.0982 77.8153 91.2142 78.654C90.3529 79.4927 89.3216 80.15 88.1202 80.626C86.9416 81.102 85.6722 81.34 84.3122 81.34C82.9522 81.34 81.6716 81.102 80.4702 80.626C79.2916 80.15 78.2602 79.4927 77.3762 78.654C76.5149 77.8153 75.8236 76.8293 75.3022 75.696C74.8036 74.54 74.5542 73.316 74.5542 72.024ZM84.3122 76.58C85.5362 76.58 86.5676 76.138 87.4062 75.254C88.2676 74.37 88.6982 73.2933 88.6982 72.024C88.6982 70.732 88.2676 69.644 87.4062 68.76C86.5676 67.876 85.5362 67.434 84.3122 67.434C83.0882 67.434 82.0456 67.876 81.1842 68.76C80.3456 69.644 79.9262 70.732 79.9262 72.024C79.9262 73.2933 80.3456 74.37 81.1842 75.254C82.0456 76.138 83.0882 76.58 84.3122 76.58ZM96.2134 81V63.014H101.721V64.816C102.311 64.1133 103.002 63.5693 103.795 63.184C104.589 62.7987 105.473 62.606 106.447 62.606C106.969 62.6287 107.388 62.674 107.705 62.742C108.023 62.7873 108.295 62.8893 108.521 63.048V67.842C108.159 67.6833 107.751 67.5587 107.297 67.468C106.844 67.3547 106.379 67.298 105.903 67.298C105.042 67.298 104.237 67.502 103.489 67.91C102.764 68.318 102.175 68.8733 101.721 69.576V81H96.2134ZM110.449 81V63.014H115.957V64.17C116.592 63.6713 117.283 63.2973 118.031 63.048C118.802 62.7987 119.607 62.674 120.445 62.674C121.556 62.674 122.565 62.9007 123.471 63.354C124.401 63.7847 125.171 64.3853 125.783 65.156C126.509 64.3627 127.37 63.7507 128.367 63.32C129.365 62.8893 130.453 62.674 131.631 62.674C133.671 62.674 135.337 63.354 136.629 64.714C137.944 66.074 138.601 67.808 138.601 69.916V81H133.093V70.664C133.093 69.6893 132.821 68.9073 132.277 68.318C131.756 67.706 131.053 67.4 130.169 67.4C129.557 67.4 129.002 67.5247 128.503 67.774C128.005 68.0007 127.574 68.3293 127.211 68.76C127.234 68.9413 127.245 69.134 127.245 69.338C127.268 69.5193 127.279 69.712 127.279 69.916V81H121.771V70.664C121.771 69.6893 121.499 68.9073 120.955 68.318C120.434 67.706 119.731 67.4 118.847 67.4C118.235 67.4 117.68 67.5133 117.181 67.74C116.705 67.944 116.297 68.2613 115.957 68.692V81H110.449ZM147.165 81.306C145.261 81.306 143.697 80.7847 142.473 79.742C141.249 78.6993 140.637 77.362 140.637 75.73C140.637 74.03 141.283 72.704 142.575 71.752C143.89 70.8 145.715 70.324 148.049 70.324C148.752 70.324 149.443 70.3693 150.123 70.46C150.803 70.5507 151.472 70.6753 152.129 70.834V69.95C152.129 69.0433 151.835 68.3747 151.245 67.944C150.679 67.4907 149.829 67.264 148.695 67.264C147.993 67.264 147.199 67.3773 146.315 67.604C145.431 67.8307 144.411 68.1933 143.255 68.692L141.283 64.646C142.734 63.9887 144.151 63.5013 145.533 63.184C146.939 62.844 148.321 62.674 149.681 62.674C152.175 62.674 154.113 63.2747 155.495 64.476C156.878 65.6547 157.569 67.3207 157.569 69.474V81H152.129V79.912C151.404 80.4107 150.633 80.7733 149.817 81C149.024 81.204 148.14 81.306 147.165 81.306ZM145.873 75.628C145.873 76.1947 146.123 76.6367 146.621 76.954C147.12 77.2713 147.811 77.43 148.695 77.43C149.353 77.43 149.965 77.362 150.531 77.226C151.121 77.09 151.653 76.8747 152.129 76.58V74.268C151.608 74.132 151.075 74.03 150.531 73.962C149.987 73.894 149.432 73.86 148.865 73.86C147.913 73.86 147.177 74.0187 146.655 74.336C146.134 74.6307 145.873 75.0613 145.873 75.628ZM149.579 55.602H155.733L150.973 60.226H146.587L149.579 55.602ZM162.289 75.526V67.604H158.651V63.014H162.289V58.39L167.797 57.2V63.014H172.829V67.604H167.797V74.438C167.797 75.2313 167.967 75.798 168.307 76.138C168.67 76.4553 169.293 76.614 170.177 76.614C170.608 76.614 171.016 76.5913 171.401 76.546C171.786 76.478 172.206 76.376 172.659 76.24V80.694C172.16 80.8527 171.526 80.9773 170.755 81.068C169.984 81.1813 169.338 81.238 168.817 81.238C166.664 81.238 165.032 80.762 163.921 79.81C162.833 78.8353 162.289 77.4073 162.289 75.526ZM177.293 61.348C176.455 61.348 175.741 61.0533 175.151 60.464C174.562 59.8747 174.267 59.1607 174.267 58.322C174.267 57.4833 174.562 56.7693 175.151 56.18C175.741 55.5907 176.455 55.296 177.293 55.296C178.132 55.296 178.846 55.5907 179.435 56.18C180.025 56.7693 180.319 57.4833 180.319 58.322C180.319 59.1607 180.025 59.8747 179.435 60.464C178.846 61.0533 178.132 61.348 177.293 61.348ZM180.047 63.014V81H174.539V63.014H180.047ZM191.974 76.58C192.722 76.58 193.413 76.4213 194.048 76.104C194.682 75.7867 195.294 75.2993 195.884 74.642L199.148 78.042C198.241 79.0847 197.13 79.9007 195.816 80.49C194.501 81.0567 193.13 81.34 191.702 81.34C190.364 81.34 189.106 81.102 187.928 80.626C186.772 80.15 185.763 79.4927 184.902 78.654C184.063 77.8153 183.394 76.8293 182.896 75.696C182.42 74.5627 182.182 73.3387 182.182 72.024C182.182 70.7093 182.42 69.4853 182.896 68.352C183.394 67.196 184.063 66.21 184.902 65.394C185.763 64.5553 186.772 63.898 187.928 63.422C189.106 62.9233 190.364 62.674 191.702 62.674C193.175 62.674 194.58 62.9687 195.918 63.558C197.255 64.1473 198.388 64.9633 199.318 66.006L195.952 69.508C195.317 68.8053 194.671 68.284 194.014 67.944C193.356 67.604 192.631 67.434 191.838 67.434C190.659 67.434 189.662 67.876 188.846 68.76C188.052 69.644 187.656 70.732 187.656 72.024C187.656 73.316 188.064 74.404 188.88 75.288C189.718 76.1493 190.75 76.58 191.974 76.58ZM206.632 81.306C204.728 81.306 203.164 80.7847 201.94 79.742C200.716 78.6993 200.104 77.362 200.104 75.73C200.104 74.03 200.75 72.704 202.042 71.752C203.357 70.8 205.181 70.324 207.516 70.324C208.219 70.324 208.91 70.3693 209.59 70.46C210.27 70.5507 210.939 70.6753 211.596 70.834V69.95C211.596 69.0433 211.301 68.3747 210.712 67.944C210.145 67.4907 209.295 67.264 208.162 67.264C207.459 67.264 206.666 67.3773 205.782 67.604C204.898 67.8307 203.878 68.1933 202.722 68.692L200.75 64.646C202.201 63.9887 203.617 63.5013 205 63.184C206.405 62.844 207.788 62.674 209.148 62.674C211.641 62.674 213.579 63.2747 214.962 64.476C216.345 65.6547 217.036 67.3207 217.036 69.474V81H211.596V79.912C210.871 80.4107 210.1 80.7733 209.284 81C208.491 81.204 207.607 81.306 206.632 81.306ZM205.34 75.628C205.34 76.1947 205.589 76.6367 206.088 76.954C206.587 77.2713 207.278 77.43 208.162 77.43C208.819 77.43 209.431 77.362 209.998 77.226C210.587 77.09 211.12 76.8747 211.596 76.58V74.268C211.075 74.132 210.542 74.03 209.998 73.962C209.454 73.894 208.899 73.86 208.332 73.86C207.38 73.86 206.643 74.0187 206.122 74.336C205.601 74.6307 205.34 75.0613 205.34 75.628Z" fill="#19191D"/>
<rect x="30" y="121" width="351" height="37" rx="18.5" fill="#A5A6F6"/>
<path d="M31.5 138.5C31.5 128.283 39.7827 120 50 120H262C272.217 120 280.5 128.283 280.5 138.5C280.5 148.717 272.217 157 262 157H50C39.7827 157 31.5 148.717 31.5 138.5Z" fill="#2979FF"/>
<rect x="23.1666" y="23.1667" width="364.5" height="7.16667" rx="3.58333" fill="#9DC2FF"/>
<defs>
<filter id="filter0_dd_128:43" x="0" y="0" width="410.833" height="205.667" filterUnits="userSpaceOnUse" color-interpolation-filters="sRGB">
<feFlood flood-opacity="0" result="BackgroundImageFix"/>
<feColorMatrix in="SourceAlpha" type="matrix" values="0 0 0 0 0 0 0 0 0 0 0 0 0 0 0 0 0 0 127 0" result="hardAlpha"/>
<feOffset/>
<feGaussianBlur stdDeviation="8"/>
<feColorMatrix type="matrix" values="0 0 0 0 0 0 0 0 0 0 0 0 0 0 0 0 0 0 0.12 0"/>
<feBlend mode="normal" in2="BackgroundImageFix" result="effect1_dropShadow_128:43"/>
<feColorMatrix in="SourceAlpha" type="matrix" values="0 0 0 0 0 0 0 0 0 0 0 0 0 0 0 0 0 0 127 0" result="hardAlpha"/>
<feOffset/>
<feGaussianBlur stdDeviation="2"/>
<feColorMatrix type="matrix" values="0 0 0 0 0 0 0 0 0 0 0 0 0 0 0 0 0 0 0.24 0"/>
<feBlend mode="normal" in2="effect1_dropShadow_128:43" result="effect2_dropShadow_128:43"/>
<feBlend mode="normal" in="SourceGraphic" in2="effect2_dropShadow_128:43" result="shape"/>
</filter>
</defs>
</svg>
