<svg width="411" height="206" viewBox="0 0 411 206" fill="none" xmlns="http://www.w3.org/2000/svg">
<g filter="url(#filter0_dd_128:115)">
<rect x="16" y="16" width="378.833" height="173.667" rx="8.95833" fill="white"/>
</g>
<path d="M31.972 93V69.2H50.876V74.266H37.82V78.72H46.524V83.616H37.82V93H31.972ZM58.2836 75.014V93H52.7756V75.014H58.2836ZM55.9376 67.602H62.0916L57.3316 72.226H52.9456L55.9376 67.602ZM59.8401 90.994L62.4581 87.288C63.5914 87.968 64.6227 88.4667 65.5521 88.784C66.4814 89.0787 67.3994 89.226 68.3061 89.226C69.2127 89.226 69.9267 89.1013 70.4481 88.852C70.9921 88.58 71.2641 88.2287 71.2641 87.798C71.2641 87.458 71.1167 87.186 70.8221 86.982C70.5274 86.7553 70.0627 86.5967 69.4281 86.506L65.8581 85.962C64.0901 85.69 62.7301 85.1007 61.7781 84.194C60.8261 83.2647 60.3501 82.0633 60.3501 80.59C60.3501 78.7767 61.0414 77.3487 62.4241 76.306C63.8067 75.2633 65.6994 74.742 68.1021 74.742C69.3941 74.742 70.6861 74.9347 71.9781 75.32C73.2927 75.6827 74.5054 76.2153 75.6161 76.918L72.9981 80.454C72.0234 79.8873 71.0941 79.4793 70.2101 79.23C69.3261 78.958 68.4421 78.822 67.5581 78.822C66.8554 78.822 66.2887 78.9467 65.8581 79.196C65.4274 79.4227 65.2121 79.7287 65.2121 80.114C65.2121 80.4767 65.3707 80.7713 65.6881 80.998C66.0054 81.202 66.5494 81.3607 67.3201 81.474L70.8901 82.018C72.6581 82.2673 74.0181 82.8567 74.9701 83.786C75.9447 84.6927 76.4321 85.8487 76.4321 87.254C76.4321 88.1153 76.2281 88.92 75.8201 89.668C75.4121 90.416 74.8454 91.062 74.1201 91.606C73.4174 92.15 72.5674 92.5807 71.5701 92.898C70.5727 93.1927 69.4961 93.34 68.3401 93.34C66.6401 93.34 65.0534 93.1473 63.5801 92.762C62.1294 92.354 60.8827 91.7647 59.8401 90.994ZM80.8469 73.348C80.0082 73.348 79.2942 73.0533 78.7049 72.464C78.1156 71.8747 77.8209 71.1607 77.8209 70.322C77.8209 69.4833 78.1156 68.7693 78.7049 68.18C79.2942 67.5907 80.0082 67.296 80.8469 67.296C81.6856 67.296 82.3996 67.5907 82.9889 68.18C83.5782 68.7693 83.8729 69.4833 83.8729 70.322C83.8729 71.1607 83.5782 71.8747 82.9889 72.464C82.3996 73.0533 81.6856 73.348 80.8469 73.348ZM83.6009 75.014V93H78.0929V75.014H83.6009ZM95.5273 88.58C96.2753 88.58 96.9667 88.4213 97.6013 88.104C98.236 87.7867 98.848 87.2993 99.4373 86.642L102.701 90.042C101.795 91.0847 100.684 91.9007 99.3693 92.49C98.0547 93.0567 96.6833 93.34 95.2553 93.34C93.918 93.34 92.66 93.102 91.4813 92.626C90.3253 92.15 89.3167 91.4927 88.4553 90.654C87.6167 89.8153 86.948 88.8293 86.4493 87.696C85.9733 86.5627 85.7353 85.3387 85.7353 84.024C85.7353 82.7093 85.9733 81.4853 86.4493 80.352C86.948 79.196 87.6167 78.21 88.4553 77.394C89.3167 76.5553 90.3253 75.898 91.4813 75.422C92.66 74.9233 93.918 74.674 95.2553 74.674C96.7287 74.674 98.134 74.9687 99.4713 75.558C100.809 76.1473 101.942 76.9633 102.871 78.006L99.5053 81.508C98.8707 80.8053 98.2247 80.284 97.5673 79.944C96.91 79.604 96.1847 79.434 95.3913 79.434C94.2127 79.434 93.2153 79.876 92.3993 80.76C91.606 81.644 91.2093 82.732 91.2093 84.024C91.2093 85.316 91.6173 86.404 92.4333 87.288C93.272 88.1493 94.3033 88.58 95.5273 88.58ZM110.185 93.306C108.281 93.306 106.717 92.7847 105.493 91.742C104.269 90.6993 103.657 89.362 103.657 87.73C103.657 86.03 104.303 84.704 105.595 83.752C106.91 82.8 108.735 82.324 111.069 82.324C111.772 82.324 112.463 82.3693 113.143 82.46C113.823 82.5507 114.492 82.6753 115.149 82.834V81.95C115.149 81.0433 114.855 80.3747 114.265 79.944C113.699 79.4907 112.849 79.264 111.715 79.264C111.013 79.264 110.219 79.3773 109.335 79.604C108.451 79.8307 107.431 80.1933 106.275 80.692L104.303 76.646C105.754 75.9887 107.171 75.5013 108.553 75.184C109.959 74.844 111.341 74.674 112.701 74.674C115.195 74.674 117.133 75.2747 118.515 76.476C119.898 77.6547 120.589 79.3207 120.589 81.474V93H115.149V91.912C114.424 92.4107 113.653 92.7733 112.837 93C112.044 93.204 111.16 93.306 110.185 93.306ZM108.893 87.628C108.893 88.1947 109.143 88.6367 109.641 88.954C110.14 89.2713 110.831 89.43 111.715 89.43C112.373 89.43 112.985 89.362 113.551 89.226C114.141 89.09 114.673 88.8747 115.149 88.58V86.268C114.628 86.132 114.095 86.03 113.551 85.962C113.007 85.894 112.452 85.86 111.885 85.86C110.933 85.86 110.197 86.0187 109.675 86.336C109.154 86.6307 108.893 87.0613 108.893 87.628Z" fill="#19191D"/>
<rect x="30" y="121" width="351" height="37" rx="18.5" fill="#A5A6F6"/>
<path d="M31.5 138.5C31.5 128.283 39.7827 120 50 120H262C272.217 120 280.5 128.283 280.5 138.5C280.5 148.717 272.217 157 262 157H50C39.7827 157 31.5 148.717 31.5 138.5Z" fill="#2979FF"/>
<rect x="23.1666" y="23.1667" width="364.5" height="7.16667" rx="3.58333" fill="#9DC2FF"/>
<defs>
<filter id="filter0_dd_128:115" x="0" y="0" width="410.833" height="205.667" filterUnits="userSpaceOnUse" color-interpolation-filters="sRGB">
<feFlood flood-opacity="0" result="BackgroundImageFix"/>
<feColorMatrix in="SourceAlpha" type="matrix" values="0 0 0 0 0 0 0 0 0 0 0 0 0 0 0 0 0 0 127 0" result="hardAlpha"/>
<feOffset/>
<feGaussianBlur stdDeviation="8"/>
<feColorMatrix type="matrix" values="0 0 0 0 0 0 0 0 0 0 0 0 0 0 0 0 0 0 0.12 0"/>
<feBlend mode="normal" in2="BackgroundImageFix" result="effect1_dropShadow_128:115"/>
<feColorMatrix in="SourceAlpha" type="matrix" values="0 0 0 0 0 0 0 0 0 0 0 0 0 0 0 0 0 0 127 0" result="hardAlpha"/>
<feOffset/>
<feGaussianBlur stdDeviation="2"/>
<feColorMatrix type="matrix" values="0 0 0 0 0 0 0 0 0 0 0 0 0 0 0 0 0 0 0.24 0"/>
<feBlend mode="normal" in2="effect1_dropShadow_128:115" result="effect2_dropShadow_128:115"/>
<feBlend mode="normal" in="SourceGraphic" in2="effect2_dropShadow_128:115" result="shape"/>
</filter>
</defs>
</svg>
